<!DOCTYPE svg PUBLIC "-//W3C//DTD SVG 20010904//EN" "http://www.w3.org/TR/2001/REC-SVG-20010904/DTD/svg10.dtd">
<svg version="1.0" xmlns="http://www.w3.org/2000/svg" width="512px" height="512px" viewBox="0 0 5120 5120" preserveAspectRatio="xMidYMid meet">
<g id="layer101" fill="#06c868" stroke="none">
 <path d="M320 4494 c-119 -32 -221 -117 -278 -233 l-37 -75 2 -975 c2 -1126 14 -1902 30 -1946 43 -122 121 -213 230 -267 l68 -33 1240 -3 1241 -2 79 -78 c132 -129 301 -220 477 -256 114 -24 1333 -24 1423 0 124 32 225 115 283 233 l37 75 0 1626 0 1626 -37 75 c-58 118 -159 201 -283 233 -53 14 -300 16 -2240 15 -1886 0 -2187 -2 -2235 -15z"/>
 </g>
<g id="layer102" fill="#ff3b3f" stroke="none">
 <path d="M320 4494 c-119 -32 -221 -117 -278 -233 l-37 -75 2 -975 c2 -1126 14 -1902 30 -1946 43 -122 121 -213 230 -267 l68 -33 1240 -3 1241 -2 79 -78 c132 -129 301 -220 477 -256 114 -24 1333 -24 1423 0 124 32 225 115 283 233 l37 75 0 1626 0 1626 -37 75 c-58 118 -159 201 -283 233 -53 14 -300 16 -2240 15 -1886 0 -2187 -2 -2235 -15z m380 -239 l0 -125 95 0 95 0 0 -900 0 -900 -95 0 -95 0 0 -120 0 -120 -50 0 -50 0 0 120 0 120 -95 0 -95 0 0 900 0 900 95 0 95 0 0 125 0 125 50 0 50 0 0 -125z m2300 -515 l0 -160 95 0 95 0 0 -775 0 -775 -95 0 -95 0 0 -155 0 -155 -50 0 -50 0 0 155 0 155 -95 0 -95 0 0 775 0 775 95 0 95 0 0 160 0 160 50 0 50 0 0 -160z m1550 -1725 l0 -215 95 0 95 0 0 -285 0 -285 -95 0 -95 0 0 -210 0 -210 -50 0 -50 0 0 210 0 210 -95 0 -95 0 0 285 0 285 95 0 95 0 0 215 0 215 50 0 50 0 0 -215z"/>
 </g>
<g id="layer103" fill="#e9a223" stroke="none">
 <path d="M320 4494 c-119 -32 -221 -117 -278 -233 l-37 -75 2 -975 c2 -1126 14 -1902 30 -1946 43 -122 121 -213 230 -267 l68 -33 1240 -3 1241 -2 79 -78 c132 -129 301 -220 477 -256 114 -24 1333 -24 1423 0 124 32 225 115 283 233 l37 75 0 1626 0 1626 -37 75 c-58 118 -159 201 -283 233 -53 14 -300 16 -2240 15 -1886 0 -2187 -2 -2235 -15z m380 -239 l0 -125 95 0 95 0 0 -900 0 -900 -95 0 -95 0 0 -120 0 -120 -50 0 -50 0 0 120 0 120 -95 0 -95 0 0 900 0 900 95 0 95 0 0 125 0 125 50 0 50 0 0 -125z m2300 -515 l0 -160 95 0 95 0 0 -775 0 -775 -95 0 -95 0 0 -155 0 -155 -50 0 -50 0 0 155 0 155 -95 0 -95 0 0 775 0 775 95 0 95 0 0 160 0 160 50 0 50 0 0 -160z m-770 -90 l0 -70 90 0 90 0 0 -435 0 -435 -90 0 -90 0 0 -65 0 -65 -55 0 -55 0 0 65 0 65 -90 0 -90 0 0 435 0 435 90 0 90 0 0 70 0 70 55 0 55 0 0 -70z m-760 -730 l0 -200 95 0 95 0 0 -200 0 -200 -95 0 -95 0 0 -200 0 -200 -50 0 -50 0 0 200 0 200 -95 0 -95 0 0 200 0 200 95 0 95 0 0 200 0 200 50 0 50 0 0 -200z m2310 -655 l0 -235 90 0 90 0 0 -110 0 -110 -90 0 -90 0 0 -235 0 -235 -55 0 -55 0 0 235 0 235 -90 0 -90 0 0 110 0 110 90 0 90 0 0 235 0 235 55 0 55 0 0 -235z m770 -250 l0 -215 95 0 95 0 0 -285 0 -285 -95 0 -95 0 0 -210 0 -210 -50 0 -50 0 0 210 0 210 -95 0 -95 0 0 285 0 285 95 0 95 0 0 215 0 215 50 0 50 0 0 -215z"/>
 </g>
<g id="layer104" fill="#f7cd23" stroke="none">
 <path d="M330 4386 c-162 -44 -289 -181 -320 -345 -6 -33 -10 -384 -10 -925 l0 -872 36 -74 c60 -127 128 -191 256 -243 52 -22 62 -22 818 -27 l765 -5 92 -32 c111 -39 176 -71 263 -129 127 -85 188 -162 537 -686 51 -77 111 -152 149 -187 120 -113 292 -201 456 -235 114 -24 1333 -24 1423 0 124 32 225 115 283 233 l37 75 3 1525 c1 998 -1 1544 -8 1581 -31 168 -167 312 -331 349 -69 16 -4390 13 -4449 -3z m370 -131 l0 -125 95 0 95 0 0 -900 0 -900 -95 0 -95 0 0 -120 0 -120 -50 0 -50 0 0 120 0 120 -95 0 -95 0 0 900 0 900 95 0 95 0 0 125 0 125 50 0 50 0 0 -125z m2300 -515 l0 -160 95 0 95 0 0 -775 0 -775 -95 0 -95 0 0 -155 0 -155 -50 0 -50 0 0 155 0 155 -95 0 -95 0 0 775 0 775 95 0 95 0 0 160 0 160 50 0 50 0 0 -160z m-770 -90 l0 -70 90 0 90 0 0 -435 0 -435 -90 0 -90 0 0 -65 0 -65 -55 0 -55 0 0 65 0 65 -90 0 -90 0 0 435 0 435 90 0 90 0 0 70 0 70 55 0 55 0 0 -70z m-760 -730 l0 -200 95 0 95 0 0 -200 0 -200 -95 0 -95 0 0 -200 0 -200 -50 0 -50 0 0 200 0 200 -95 0 -95 0 0 200 0 200 95 0 95 0 0 200 0 200 50 0 50 0 0 -200z m2310 -655 l0 -235 90 0 90 0 0 -110 0 -110 -90 0 -90 0 0 -235 0 -235 -55 0 -55 0 0 235 0 235 -90 0 -90 0 0 110 0 110 90 0 90 0 0 235 0 235 55 0 55 0 0 -235z m770 -250 l0 -215 95 0 95 0 0 -285 0 -285 -95 0 -95 0 0 -210 0 -210 -50 0 -50 0 0 210 0 210 -95 0 -95 0 0 285 0 285 95 0 95 0 0 215 0 215 50 0 50 0 0 -215z"/>
 </g>

</svg>